<svg xmlns="http://www.w3.org/2000/svg" viewBox="0 0 220 220" role="img" aria-label="기본 표정 강아지 토리">
  <circle cx="110" cy="118" r="72" fill="#f6d7a8"/>
  <ellipse cx="60" cy="94" rx="28" ry="45" fill="#bd8056" transform="rotate(-28 60 94)"/>
  <ellipse cx="160" cy="94" rx="28" ry="45" fill="#bd8056" transform="rotate(28 160 94)"/>
  <circle cx="110" cy="118" r="58" fill="#ffe6bd"/>
  <ellipse cx="87" cy="112" rx="8" ry="10" fill="#49352d"/>
  <ellipse cx="133" cy="112" rx="8" ry="10" fill="#49352d"/>
  <circle cx="90" cy="108" r="3" fill="#fff"/>
  <circle cx="136" cy="108" r="3" fill="#fff"/>
  <ellipse cx="110" cy="132" rx="10" ry="7" fill="#5b4036"/>
  <path d="M96 143c8 10 20 10 28 0" fill="none" stroke="#5b4036" stroke-width="5" stroke-linecap="round"/>
  <circle cx="72" cy="132" r="9" fill="#ffb7c8" opacity=".75"/>
  <circle cx="148" cy="132" r="9" fill="#ffb7c8" opacity=".75"/>
  <path d="M42 154c-18 8-27 2-29-9 14-1 25-8 29-22" fill="none" stroke="#bd8056" stroke-width="13" stroke-linecap="round"/>
  <ellipse cx="110" cy="184" rx="48" ry="20" fill="#bd8056" opacity=".16"/>
</svg>
