<svg xmlns="http://www.w3.org/2000/svg" viewBox="0 0 220 220" role="img" aria-label="기쁜 강아지 토리">
  <circle cx="110" cy="118" r="72" fill="#f6d7a8"/>
  <ellipse cx="60" cy="92" rx="28" ry="45" fill="#bd8056" transform="rotate(-32 60 92)"/>
  <ellipse cx="160" cy="92" rx="28" ry="45" fill="#bd8056" transform="rotate(32 160 92)"/>
  <circle cx="110" cy="118" r="58" fill="#ffe6bd"/>
  <path d="M80 110q8-11 16 0" fill="none" stroke="#49352d" stroke-width="5" stroke-linecap="round"/>
  <path d="M124 110q8-11 16 0" fill="none" stroke="#49352d" stroke-width="5" stroke-linecap="round"/>
  <ellipse cx="110" cy="131" rx="10" ry="7" fill="#5b4036"/>
  <path d="M94 143c10 15 25 15 35 0" fill="none" stroke="#5b4036" stroke-width="5" stroke-linecap="round"/>
  <path d="M110 150c5 8 12 8 16 0" fill="#ff7a91"/>
  <circle cx="70" cy="132" r="10" fill="#ffabc0" opacity=".85"/>
  <circle cx="150" cy="132" r="10" fill="#ffabc0" opacity=".85"/>
  <path d="M42 154c-20 4-28-4-26-16 13 3 26-1 34-13" fill="none" stroke="#bd8056" stroke-width="13" stroke-linecap="round"/>
  <path d="M40 42l8 13 14 2-10 10 3 15-15-7-14 7 3-15-11-10 15-2z" fill="#ffd166"/>
</svg>
