<svg xmlns="http://www.w3.org/2000/svg" viewBox="0 0 220 220" role="img" aria-label="생각하는 강아지 토리">
  <circle cx="110" cy="118" r="72" fill="#f6d7a8"/>
  <ellipse cx="61" cy="96" rx="28" ry="45" fill="#bd8056" transform="rotate(-24 61 96)"/>
  <ellipse cx="159" cy="96" rx="28" ry="45" fill="#bd8056" transform="rotate(24 159 96)"/>
  <circle cx="110" cy="118" r="58" fill="#ffe6bd"/>
  <ellipse cx="86" cy="113" rx="8" ry="10" fill="#49352d"/>
  <ellipse cx="135" cy="113" rx="8" ry="10" fill="#49352d"/>
  <path d="M101 136q9-8 18 0" fill="none" stroke="#5b4036" stroke-width="5" stroke-linecap="round"/>
  <ellipse cx="110" cy="128" rx="10" ry="7" fill="#5b4036"/>
  <circle cx="70" cy="132" r="8" fill="#ffb7c8" opacity=".7"/>
  <circle cx="150" cy="132" r="8" fill="#ffb7c8" opacity=".7"/>
  <text x="160" y="62" font-family="Arial, sans-serif" font-size="34" font-weight="700" fill="#8bd3dd">?</text>
  <path d="M42 154c-17 6-25 1-27-10 12 0 24-7 28-20" fill="none" stroke="#bd8056" stroke-width="13" stroke-linecap="round"/>
</svg>
