<svg xmlns="http://www.w3.org/2000/svg" viewBox="0 0 512 512"><rect width="512" height="512" rx="110" fill="#fff7e8"/><circle cx="256" cy="280" r="150" fill="#f6d7a8"/><ellipse cx="152" cy="214" rx="58" ry="94" fill="#bd8056" transform="rotate(-28 152 214)"/><ellipse cx="360" cy="214" rx="58" ry="94" fill="#bd8056" transform="rotate(28 360 214)"/><circle cx="256" cy="280" r="120" fill="#ffe6bd"/><circle cx="208" cy="268" r="18" fill="#49352d"/><circle cx="304" cy="268" r="18" fill="#49352d"/><ellipse cx="256" cy="310" rx="23" ry="16" fill="#5b4036"/><path d="M222 338c24 32 55 32 78 0" fill="none" stroke="#5b4036" stroke-width="16" stroke-linecap="round"/><path d="M145 100l20 34 39 6-28 27 7 39-38-19-35 19 7-39-29-27 40-6z" fill="#ff9fbc"/></svg>
